<?xml version="1.0" encoding="utf-8"?>
<!-- Generator: Adobe Illustrator 24.0.0, SVG Export Plug-In . SVG Version: 6.00 Build 0)  -->
<svg version="1.1" xmlns="http://www.w3.org/2000/svg" xmlns:xlink="http://www.w3.org/1999/xlink" x="0px" y="0px"
	 viewBox="0 0 100 100" style="enable-background:new 0 0 100 100;" xml:space="preserve">
<style type="text/css">
	.st0{fill:#C6C6C6;}
	.st1{fill:#D3070E;}
	.st2{fill:#0A6635;}
	.st3{fill:#F3C100;}
	.st4{fill:#1D1D1B;}
	.st5{fill:#F6F6F6;}
	.st6{fill:#FFFFFF;}
	.st7{fill:#FFFFFF;stroke:#1D1D1B;stroke-width:3;stroke-miterlimit:10;}
	.st8{font-family:'Roboto-BoldCondensedItalic';}
	.st9{font-size:22.9814px;}
	.st10{letter-spacing:1.95;}
	.st11{font-family:'Antihero';}
	.st12{font-size:40.2174px;}
	.st13{letter-spacing:4;}
</style>
<g id="Capa_1">
</g>
<g id="Capa_6">
	<path class="st0" d="M94.07,100H5.75C2.57,100,0,97.43,0,94.25V5.93c0-3.18,2.57-5.75,5.75-5.75h88.32c3.18,0,5.75,2.57,5.75,5.75
		v88.32C99.82,97.43,97.25,100,94.07,100z"/>
</g>
<g id="Capa_2">
	<g>
		<polygon class="st1" points="94.05,23.23 7.05,44.04 7.05,56.95 94.05,36.13 		"/>
		<polygon class="st2" points="94.05,49.04 7.05,69.85 7.05,82.75 94.05,61.94 		"/>
		<path class="st3" d="M7.05,56.95v12.9l87.01-20.82v-12.9L7.05,56.95z M69.77,51.24l-38.43,9.19v-5.7l38.43-9.19V51.24z"/>
	</g>
</g>
<g id="Capa_3">
	<g>
		<path class="st4" d="M63.59,67.63h-24.8c-2.16,0-3.92-1.75-3.92-3.92V35.29c0-2.16,1.75-3.92,3.92-3.92h24.8
			c2.16,0,3.92,1.75,3.92,3.92v28.42C67.51,65.87,65.75,67.63,63.59,67.63z"/>
		<path class="st5" d="M60.2,66.37H42.09c-3.39,0-6.13-2.75-6.13-6.13V38.76c0-3.39,2.75-6.13,6.13-6.13H60.2
			c3.39,0,6.13,2.75,6.13,6.13v21.48C66.33,63.63,63.59,66.37,60.2,66.37z"/>
		<polygon class="st4" points="59.28,34.2 43.1,34.2 38.54,31.99 63.84,31.99 		"/>
		<path class="st6" d="M55.9,33.34h-9.42c-0.11,0-0.21-0.09-0.21-0.21v-0.08c0-0.11,0.09-0.21,0.21-0.21h9.42
			c0.11,0,0.21,0.09,0.21,0.21v0.08C56.11,33.25,56.01,33.34,55.9,33.34z"/>
		<rect x="45.42" y="45.01" class="st7" width="11.44" height="11.44"/>
		<polygon class="st1" points="45.84,48.36 44.66,51.4 49.31,56.18 63.79,37.07 61.83,35.31 49.13,53.99 		"/>
	</g>
</g>
<g id="Capa_4">
	<g>
		<polygon class="st2" points="94.05,49.28 7.05,70.04 7.05,83.07 94.05,62.06 		"/>
		<path class="st3" d="M7.05,66.17v3.87l87.01-20.76v-3.87L7.05,66.17z"/>
	</g>
</g>
<g id="Capa_5">
	<text transform="matrix(1 -0.2309 0 1 7.2078 38.8408)" class="st8 st9 st10">FUERZA</text>
	<text transform="matrix(0.9781 -0.2079 0.2079 0.9781 42.0121 94.5802)" class="st11 st12 st13">BO</text>
</g>
</svg>
