<?xml version="1.0" encoding="utf-8"?>
<!-- Generator: Adobe Illustrator 24.0.0, SVG Export Plug-In . SVG Version: 6.00 Build 0)  -->
<svg version="1.1" xmlns="http://www.w3.org/2000/svg" xmlns:xlink="http://www.w3.org/1999/xlink" x="0px" y="0px"
	 viewBox="0 0 180 180" style="enable-background:new 0 0 180 180;" xml:space="preserve">
<style type="text/css">
	.st0{fill:#C6C6C6;}
	.st1{fill:#D3070E;}
	.st2{fill:#0A6635;}
	.st3{fill:#F3C100;}
	.st4{fill:#1D1D1B;}
	.st5{fill:#F6F6F6;}
	.st6{fill:#FFFFFF;}
	.st7{fill:#FFFFFF;stroke:#1D1D1B;stroke-width:3;stroke-miterlimit:10;}
	.st8{font-family:'Roboto-BoldCondensedItalic';}
	.st9{font-size:42px;}
	.st10{letter-spacing:4.87;}
	.st11{font-family:'Antihero';}
	.st12{font-size:73.3716px;}
	.st13{letter-spacing:8;}
</style>
<g id="Capa_1">
	<path class="st0" d="M174.25,180H5.75C2.57,180,0,177.43,0,174.25V5.75C0,2.57,2.57,0,5.75,0h168.5c3.18,0,5.75,2.57,5.75,5.75
		v168.5C180,177.43,177.43,180,174.25,180z"/>
</g>
<g id="Capa_3">
	<g>
		<polygon class="st1" points="170.48,39.7 8.9,78.35 8.9,102.32 170.48,63.66 		"/>
		<polygon class="st2" points="170.48,87.62 8.9,126.28 8.9,150.24 170.48,111.59 		"/>
		<path class="st3" d="M8.9,102.32v23.96l161.57-38.65V63.66L8.9,102.32z M125.38,91.73L54,108.8V98.21l71.37-17.07V91.73z"/>
	</g>
</g>
<g id="Capa_4">
	<g>
		<path class="st4" d="M113.32,122.78H64.93c-2.16,0-3.92-1.75-3.92-3.92V64.23c0-2.16,1.75-3.92,3.92-3.92h48.39
			c2.16,0,3.92,1.75,3.92,3.92v54.63C117.24,121.02,115.48,122.78,113.32,122.78z"/>
		<path class="st5" d="M109.08,120.62H69.01c-3.39,0-6.13-2.75-6.13-6.13V68.6c0-3.39,2.75-6.13,6.13-6.13h40.07
			c3.39,0,6.13,2.75,6.13,6.13v45.88C115.22,117.87,112.47,120.62,109.08,120.62z"/>
		<polygon class="st4" points="103.06,65.19 75.18,65.19 67.33,61.38 110.92,61.38 		"/>
		<path class="st6" d="M97.32,63.7H80.93c-0.15,0-0.28-0.12-0.28-0.28v-0.29c0-0.15,0.12-0.28,0.28-0.28h16.39
			c0.15,0,0.28,0.12,0.28,0.28v0.29C97.6,63.58,97.47,63.7,97.32,63.7z"/>
		<rect x="79.19" y="83.81" class="st7" width="19.72" height="19.72"/>
		<polygon class="st1" points="79.91,89.58 77.88,94.82 85.89,103.06 110.83,70.12 107.45,67.09 85.58,99.29 		"/>
	</g>
</g>
<g id="Capa_5">
	<g>
		<polygon class="st2" points="170.63,88.2 8.9,126.44 8.9,150.43 170.63,111.74 		"/>
		<path class="st3" d="M8.9,119.31v7.13L170.63,88.2v-7.12L8.9,119.31z"/>
	</g>
</g>
<g id="Capa_2">
	<text transform="matrix(1 -0.2309 0 1 9.8821 71.7399)" class="st8 st9 st10">FUERZA</text>
	<text transform="matrix(0.9781 -0.2079 0.2079 0.9781 74.8109 172.0073)" class="st11 st12 st13">BO</text>
</g>
</svg>
